<svg width="32" height="32" xmlns="http://www.w3.org/2000/svg">

 <g>
  <title>Layer 1</title>
  <path id="svg_1" d="m1,5c0,-2.17352 1.82648,-4 4,-4l22,0c2.17352,0 4,1.82648 4,4l0,22c0,2.17352 -1.82648,4 -4,4l-22,0c-2.17352,0 -4,-1.82648 -4,-4l0,-22z" opacity="undefined" stroke-width="2" stroke="#0951b0" fill="#ffffff"/>
  <path id="svg_2" d="m9.17808,13.0411c-1.61962,0 -2.93151,-1.31189 -2.93151,-2.93151c0,-1.61962 1.31189,-2.93151 2.93151,-2.93151c1.61962,0 2.93151,1.31189 2.93151,2.93151c0,1.61962 -1.31189,2.93151 -2.93151,2.93151z" opacity="undefined" stroke="#000000" fill="#000000"/>
  <path id="svg_3" d="m10.50313,16.43829l4.8805,10.63014l-10.63014,0l5.74963,-10.63014z" opacity="undefined" stroke-width="2" stroke="null" fill="#f7c344"/>
  <path id="svg_4" d="m20.25273,9.95201l7.66793,17.13304l-16.54795,0l8.88002,-17.13304z" opacity="undefined" stroke-width="2" stroke="null" fill="#ee3635"/>
 </g>
</svg>